<mxfile host="65bd71144e" modified="2020-12-21T02:01:52.872Z" agent="5.0 (Macintosh; Intel Mac OS X 11_0_0) AppleWebKit/537.36 (KHTML, like Gecko) Code/1.52.1 Chrome/83.0.4103.122 Electron/9.3.5 Safari/537.36" etag="hpeaq6XDEB0J9PSlSKP3" version="13.10.0" type="embed">
    <diagram id="4BcVMrvqm_7PsKWYAova" name="Page-1">
        <mxGraphModel dx="1448" dy="807" grid="1" gridSize="10" guides="1" tooltips="1" connect="1" arrows="1" fold="1" page="1" pageScale="1" pageWidth="850" pageHeight="1100" math="0" shadow="0">
            <root>
                <mxCell id="0"/>
                <mxCell id="1" parent="0"/>
            </root>
        </mxGraphModel>
    </diagram>
</mxfile>